<svg width="250" height="7" viewBox="0 0 250 7" fill="none" xmlns="http://www.w3.org/2000/svg">
<path d="M1 0H250C248.909 0.0611899 247.889 0.65631 245.5 2.5L241 6C239.855 6.63983 239.22 6.8941 238 7H15.385C13.5 7 13.377 6.88189 12.5 6.5L3.5 1C2.38929 0.281681 1.84613 0.0692938 1 0Z" fill="black"/>
<path d="M249 0H0C1.09136 0.0611899 2.11123 0.65631 4.5 2.5L9 6C10.1447 6.63983 10.7795 6.8941 12 7H234.615C236.5 7 236.623 6.88189 237.5 6.5L246.5 1C247.611 0.281681 248.154 0.0692938 249 0Z" fill="black"/>
</svg>
