<svg width="49" height="49" viewBox="0 0 49 49" fill="none" xmlns="http://www.w3.org/2000/svg">
<circle cx="23.5" cy="23.5" r="20.5" fill="#9D9D9D"/>
<circle cx="23.5" cy="23.4997" r="16.5" transform="rotate(-165 23.5 23.4997)" fill="url(#paint0_linear)"/>
<g filter="url(#filter0_d)">
<path d="M10.9426 16.2498C14.9467 9.31451 23.8148 6.93832 30.75 10.9424V10.9424C37.6852 14.9464 40.0614 23.8145 36.0574 30.7498V30.7498C32.0533 37.685 23.1852 40.0612 16.25 36.0571V36.0571C9.31475 32.0531 6.93856 23.185 10.9426 16.2498V16.2498Z" fill="url(#paint1_linear)"/>
</g>
<path d="M9.50027 22.3304C11.5003 11.9997 20.0002 8.49971 26.2089 9.9998C29 10.9998 29.7977 12.6385 28.3835 14.5022C27.6265 15.4998 21.1247 13.4718 16 16.4996C12.5 18.4998 9.31244 24.2297 9.50027 22.3304Z" fill="white" fill-opacity="0.2"/>
<defs>
<filter id="filter0_d" x="0.692627" y="0.692383" width="47.6147" height="47.6147" filterUnits="userSpaceOnUse" color-interpolation-filters="sRGB">
<feFlood flood-opacity="0" result="BackgroundImageFix"/>
<feColorMatrix in="SourceAlpha" type="matrix" values="0 0 0 0 0 0 0 0 0 0 0 0 0 0 0 0 0 0 127 0"/>
<feOffset dx="1" dy="1"/>
<feGaussianBlur stdDeviation="2"/>
<feColorMatrix type="matrix" values="0 0 0 0 0 0 0 0 0 0 0 0 0 0 0 0 0 0 0.75 0"/>
<feBlend mode="normal" in2="BackgroundImageFix" result="effect1_dropShadow"/>
<feBlend mode="normal" in="SourceGraphic" in2="effect1_dropShadow" result="shape"/>
</filter>
<linearGradient id="paint0_linear" x1="6.99998" y1="17.6069" x2="40.3785" y2="32.0537" gradientUnits="userSpaceOnUse">
<stop stop-color="#00E64E"/>
<stop offset="1" stop-color="#006B25"/>
</linearGradient>
<linearGradient id="paint1_linear" x1="13.5319" y1="11.765" x2="32.5869" y2="37.4261" gradientUnits="userSpaceOnUse">
<stop stop-color="#00E64E"/>
<stop offset="1" stop-color="#006B25"/>
</linearGradient>
</defs>
</svg>
