<svg width="316" height="21" viewBox="0 0 316 21" fill="none" xmlns="http://www.w3.org/2000/svg">
<path d="M0 2C0 0.89543 0.895431 0 2 0H10.898C12.0025 0 12.898 0.895431 12.898 2V19C12.898 20.1046 12.0025 21 10.898 21H2C0.895432 21 0 20.1046 0 19V2Z" fill="#C4C4C4"/>
<path d="M0 2C0 0.89543 0.895431 0 2 0H10.898C12.0025 0 12.898 0.895431 12.898 2V19C12.898 20.1046 12.0025 21 10.898 21H2C0.895432 21 0 20.1046 0 19V2Z" fill="url(#paint0_linear)"/>
<path d="M142.799 2C142.799 0.89543 143.694 0 144.799 0H153.697C154.801 0 155.697 0.895431 155.697 2V19C155.697 20.1046 154.801 21 153.697 21H144.799C143.694 21 142.799 20.1046 142.799 19V2Z" fill="#C4C4C4"/>
<path d="M142.799 2C142.799 0.89543 143.694 0 144.799 0H153.697C154.801 0 155.697 0.895431 155.697 2V19C155.697 20.1046 154.801 21 153.697 21H144.799C143.694 21 142.799 20.1046 142.799 19V2Z" fill="url(#paint1_linear)"/>
<path d="M70.9388 2C70.9388 0.89543 71.8342 0 72.9388 0H82.758C83.8626 0 84.758 0.895431 84.758 2V19C84.758 20.1046 83.8626 21 82.758 21H72.9388C71.8342 21 70.9388 20.1046 70.9388 19V2Z" fill="#C4C4C4"/>
<path d="M70.9388 2C70.9388 0.89543 71.8342 0 72.9388 0H82.758C83.8626 0 84.758 0.895431 84.758 2V19C84.758 20.1046 83.8626 21 82.758 21H72.9388C71.8342 21 70.9388 20.1046 70.9388 19V2Z" fill="url(#paint2_linear)"/>
<path d="M213.738 2C213.738 0.89543 214.633 0 215.738 0H224.636C225.74 0 226.636 0.895431 226.636 2V19C226.636 20.1046 225.74 21 224.636 21H215.738C214.633 21 213.738 20.1046 213.738 19V2Z" fill="#C4C4C4"/>
<path d="M213.738 2C213.738 0.89543 214.633 0 215.738 0H224.636C225.74 0 226.636 0.895431 226.636 2V19C226.636 20.1046 225.74 21 224.636 21H215.738C214.633 21 213.738 20.1046 213.738 19V2Z" fill="url(#paint3_linear)"/>
<path d="M17.5044 2C17.5044 0.89543 18.3998 0 19.5044 0H29.3236C30.4282 0 31.3236 0.895431 31.3236 2V19C31.3236 20.1046 30.4282 21 29.3236 21H19.5044C18.3998 21 17.5044 20.1046 17.5044 19V2Z" fill="#C4C4C4"/>
<path d="M17.5044 2C17.5044 0.89543 18.3998 0 19.5044 0H29.3236C30.4282 0 31.3236 0.895431 31.3236 2V19C31.3236 20.1046 30.4282 21 29.3236 21H19.5044C18.3998 21 17.5044 20.1046 17.5044 19V2Z" fill="url(#paint4_linear)"/>
<path d="M160.303 2C160.303 0.89543 161.199 0 162.303 0H171.201C172.306 0 173.201 0.895431 173.201 2V19C173.201 20.1046 172.306 21 171.201 21H162.303C161.199 21 160.303 20.1046 160.303 19V2Z" fill="#C4C4C4"/>
<path d="M160.303 2C160.303 0.89543 161.199 0 162.303 0H171.201C172.306 0 173.201 0.895431 173.201 2V19C173.201 20.1046 172.306 21 171.201 21H162.303C161.199 21 160.303 20.1046 160.303 19V2Z" fill="url(#paint5_linear)"/>
<path d="M89.3644 2C89.3644 0.89543 90.2599 0 91.3644 0H100.262C101.367 0 102.262 0.895431 102.262 2V19C102.262 20.1046 101.367 21 100.262 21H91.3644C90.2599 21 89.3644 20.1046 89.3644 19V2Z" fill="#C4C4C4"/>
<path d="M89.3644 2C89.3644 0.89543 90.2599 0 91.3644 0H100.262C101.367 0 102.262 0.895431 102.262 2V19C102.262 20.1046 101.367 21 100.262 21H91.3644C90.2599 21 89.3644 20.1046 89.3644 19V2Z" fill="url(#paint6_linear)"/>
<path d="M231.242 2C231.242 0.89543 232.137 0 233.242 0H243.061C244.166 0 245.061 0.895431 245.061 2V19C245.061 20.1046 244.166 21 243.061 21H233.242C232.137 21 231.242 20.1046 231.242 19V2Z" fill="#C4C4C4"/>
<path d="M231.242 2C231.242 0.89543 232.137 0 233.242 0H243.061C244.166 0 245.061 0.895431 245.061 2V19C245.061 20.1046 244.166 21 243.061 21H233.242C232.137 21 231.242 20.1046 231.242 19V2Z" fill="url(#paint7_linear)"/>
<path d="M284.676 2C284.676 0.89543 285.572 0 286.676 0H296.496C297.6 0 298.496 0.895431 298.496 2V19C298.496 20.1046 297.6 21 296.496 21H286.676C285.572 21 284.676 20.1046 284.676 19V2Z" fill="#C4C4C4"/>
<path d="M284.676 2C284.676 0.89543 285.572 0 286.676 0H296.496C297.6 0 298.496 0.895431 298.496 2V19C298.496 20.1046 297.6 21 296.496 21H286.676C285.572 21 284.676 20.1046 284.676 19V2Z" fill="url(#paint8_linear)"/>
<path d="M35.93 2C35.93 0.89543 36.8255 0 37.93 0H46.828C47.9326 0 48.828 0.895431 48.828 2V19C48.828 20.1046 47.9326 21 46.828 21H37.93C36.8255 21 35.93 20.1046 35.93 19V2Z" fill="#C4C4C4"/>
<path d="M35.93 2C35.93 0.89543 36.8255 0 37.93 0H46.828C47.9326 0 48.828 0.895431 48.828 2V19C48.828 20.1046 47.9326 21 46.828 21H37.93C36.8255 21 35.93 20.1046 35.93 19V2Z" fill="url(#paint9_linear)"/>
<path d="M177.808 2C177.808 0.89543 178.703 0 179.808 0H189.627C190.731 0 191.627 0.895431 191.627 2V19C191.627 20.1046 190.731 21 189.627 21H179.808C178.703 21 177.808 20.1046 177.808 19V2Z" fill="#C4C4C4"/>
<path d="M177.808 2C177.808 0.89543 178.703 0 179.808 0H189.627C190.731 0 191.627 0.895431 191.627 2V19C191.627 20.1046 190.731 21 189.627 21H179.808C178.703 21 177.808 20.1046 177.808 19V2Z" fill="url(#paint10_linear)"/>
<path d="M106.869 2C106.869 0.89543 107.764 0 108.869 0H117.767C118.871 0 119.767 0.895431 119.767 2V19C119.767 20.1046 118.871 21 117.767 21H108.869C107.764 21 106.869 20.1046 106.869 19V2Z" fill="#C4C4C4"/>
<path d="M106.869 2C106.869 0.89543 107.764 0 108.869 0H117.767C118.871 0 119.767 0.895431 119.767 2V19C119.767 20.1046 118.871 21 117.767 21H108.869C107.764 21 106.869 20.1046 106.869 19V2Z" fill="url(#paint11_linear)"/>
<path d="M249.668 2C249.668 0.89543 250.563 0 251.668 0H260.566C261.67 0 262.566 0.895431 262.566 2V19C262.566 20.1046 261.67 21 260.566 21H251.668C250.563 21 249.668 20.1046 249.668 19V2Z" fill="#C4C4C4"/>
<path d="M249.668 2C249.668 0.89543 250.563 0 251.668 0H260.566C261.67 0 262.566 0.895431 262.566 2V19C262.566 20.1046 261.67 21 260.566 21H251.668C250.563 21 249.668 20.1046 249.668 19V2Z" fill="url(#paint12_linear)"/>
<path d="M303.102 2C303.102 0.89543 303.997 0 305.102 0H314C315.105 0 316 0.895431 316 2V19C316 20.1046 315.105 21 314 21H305.102C303.997 21 303.102 20.1046 303.102 19V2Z" fill="#C4C4C4"/>
<path d="M303.102 2C303.102 0.89543 303.997 0 305.102 0H314C315.105 0 316 0.895431 316 2V19C316 20.1046 315.105 21 314 21H305.102C303.997 21 303.102 20.1046 303.102 19V2Z" fill="url(#paint13_linear)"/>
<path d="M53.4344 2C53.4344 0.89543 54.3298 0 55.4344 0H64.3324C65.4369 0 66.3324 0.895431 66.3324 2V19C66.3324 20.1046 65.4369 21 64.3324 21H55.4344C54.3298 21 53.4344 20.1046 53.4344 19V2Z" fill="#C4C4C4"/>
<path d="M53.4344 2C53.4344 0.89543 54.3298 0 55.4344 0H64.3324C65.4369 0 66.3324 0.895431 66.3324 2V19C66.3324 20.1046 65.4369 21 64.3324 21H55.4344C54.3298 21 53.4344 20.1046 53.4344 19V2Z" fill="url(#paint14_linear)"/>
<path d="M196.233 2C196.233 0.89543 197.129 0 198.233 0H207.131C208.236 0 209.131 0.895431 209.131 2V19C209.131 20.1046 208.236 21 207.131 21H198.233C197.129 21 196.233 20.1046 196.233 19V2Z" fill="#C4C4C4"/>
<path d="M196.233 2C196.233 0.89543 197.129 0 198.233 0H207.131C208.236 0 209.131 0.895431 209.131 2V19C209.131 20.1046 208.236 21 207.131 21H198.233C197.129 21 196.233 20.1046 196.233 19V2Z" fill="url(#paint15_linear)"/>
<path d="M124.373 2C124.373 0.89543 125.269 0 126.373 0H136.192C137.297 0 138.192 0.895431 138.192 2V19C138.192 20.1046 137.297 21 136.192 21H126.373C125.269 21 124.373 20.1046 124.373 19V2Z" fill="#C4C4C4"/>
<path d="M124.373 2C124.373 0.89543 125.269 0 126.373 0H136.192C137.297 0 138.192 0.895431 138.192 2V19C138.192 20.1046 137.297 21 136.192 21H126.373C125.269 21 124.373 20.1046 124.373 19V2Z" fill="url(#paint16_linear)"/>
<path d="M267.172 2C267.172 0.89543 268.067 0 269.172 0H278.07C279.175 0 280.07 0.895431 280.07 2V19C280.07 20.1046 279.175 21 278.07 21H269.172C268.067 21 267.172 20.1046 267.172 19V2Z" fill="#C4C4C4"/>
<path d="M267.172 2C267.172 0.89543 268.067 0 269.172 0H278.07C279.175 0 280.07 0.895431 280.07 2V19C280.07 20.1046 279.175 21 278.07 21H269.172C268.067 21 267.172 20.1046 267.172 19V2Z" fill="url(#paint17_linear)"/>
<defs>
<linearGradient id="paint0_linear" x1="-2.24402e-06" y1="10.5001" x2="316.978" y2="10.5001" gradientUnits="userSpaceOnUse">
<stop stop-color="#910000"/>
<stop offset="0.244792" stop-color="#92360B"/>
<stop offset="0.333333" stop-color="#ADC217"/>
<stop offset="0.66179" stop-color="#ADC217"/>
<stop offset="0.765147" stop-color="#2CAA00"/>
<stop offset="1" stop-color="#2CAA00"/>
</linearGradient>
<linearGradient id="paint1_linear" x1="-2.24402e-06" y1="10.5001" x2="316.978" y2="10.5001" gradientUnits="userSpaceOnUse">
<stop stop-color="#910000"/>
<stop offset="0.244792" stop-color="#92360B"/>
<stop offset="0.333333" stop-color="#ADC217"/>
<stop offset="0.66179" stop-color="#ADC217"/>
<stop offset="0.765147" stop-color="#2CAA00"/>
<stop offset="1" stop-color="#2CAA00"/>
</linearGradient>
<linearGradient id="paint2_linear" x1="-2.24402e-06" y1="10.5001" x2="316.978" y2="10.5001" gradientUnits="userSpaceOnUse">
<stop stop-color="#910000"/>
<stop offset="0.244792" stop-color="#92360B"/>
<stop offset="0.333333" stop-color="#ADC217"/>
<stop offset="0.66179" stop-color="#ADC217"/>
<stop offset="0.765147" stop-color="#2CAA00"/>
<stop offset="1" stop-color="#2CAA00"/>
</linearGradient>
<linearGradient id="paint3_linear" x1="-2.24402e-06" y1="10.5001" x2="316.978" y2="10.5001" gradientUnits="userSpaceOnUse">
<stop stop-color="#910000"/>
<stop offset="0.244792" stop-color="#92360B"/>
<stop offset="0.333333" stop-color="#ADC217"/>
<stop offset="0.66179" stop-color="#ADC217"/>
<stop offset="0.765147" stop-color="#2CAA00"/>
<stop offset="1" stop-color="#2CAA00"/>
</linearGradient>
<linearGradient id="paint4_linear" x1="-2.24402e-06" y1="10.5001" x2="316.978" y2="10.5001" gradientUnits="userSpaceOnUse">
<stop stop-color="#910000"/>
<stop offset="0.244792" stop-color="#92360B"/>
<stop offset="0.333333" stop-color="#ADC217"/>
<stop offset="0.66179" stop-color="#ADC217"/>
<stop offset="0.765147" stop-color="#2CAA00"/>
<stop offset="1" stop-color="#2CAA00"/>
</linearGradient>
<linearGradient id="paint5_linear" x1="-2.24402e-06" y1="10.5001" x2="316.978" y2="10.5001" gradientUnits="userSpaceOnUse">
<stop stop-color="#910000"/>
<stop offset="0.244792" stop-color="#92360B"/>
<stop offset="0.333333" stop-color="#ADC217"/>
<stop offset="0.66179" stop-color="#ADC217"/>
<stop offset="0.765147" stop-color="#2CAA00"/>
<stop offset="1" stop-color="#2CAA00"/>
</linearGradient>
<linearGradient id="paint6_linear" x1="-2.24402e-06" y1="10.5001" x2="316.978" y2="10.5001" gradientUnits="userSpaceOnUse">
<stop stop-color="#910000"/>
<stop offset="0.244792" stop-color="#92360B"/>
<stop offset="0.333333" stop-color="#ADC217"/>
<stop offset="0.66179" stop-color="#ADC217"/>
<stop offset="0.765147" stop-color="#2CAA00"/>
<stop offset="1" stop-color="#2CAA00"/>
</linearGradient>
<linearGradient id="paint7_linear" x1="-2.24402e-06" y1="10.5001" x2="316.978" y2="10.5001" gradientUnits="userSpaceOnUse">
<stop stop-color="#910000"/>
<stop offset="0.244792" stop-color="#92360B"/>
<stop offset="0.333333" stop-color="#ADC217"/>
<stop offset="0.66179" stop-color="#ADC217"/>
<stop offset="0.765147" stop-color="#2CAA00"/>
<stop offset="1" stop-color="#2CAA00"/>
</linearGradient>
<linearGradient id="paint8_linear" x1="-2.24402e-06" y1="10.5001" x2="316.978" y2="10.5001" gradientUnits="userSpaceOnUse">
<stop stop-color="#910000"/>
<stop offset="0.244792" stop-color="#92360B"/>
<stop offset="0.333333" stop-color="#ADC217"/>
<stop offset="0.66179" stop-color="#ADC217"/>
<stop offset="0.765147" stop-color="#2CAA00"/>
<stop offset="1" stop-color="#2CAA00"/>
</linearGradient>
<linearGradient id="paint9_linear" x1="-2.24402e-06" y1="10.5001" x2="316.978" y2="10.5001" gradientUnits="userSpaceOnUse">
<stop stop-color="#910000"/>
<stop offset="0.244792" stop-color="#92360B"/>
<stop offset="0.333333" stop-color="#ADC217"/>
<stop offset="0.66179" stop-color="#ADC217"/>
<stop offset="0.765147" stop-color="#2CAA00"/>
<stop offset="1" stop-color="#2CAA00"/>
</linearGradient>
<linearGradient id="paint10_linear" x1="-2.24402e-06" y1="10.5001" x2="316.978" y2="10.5001" gradientUnits="userSpaceOnUse">
<stop stop-color="#910000"/>
<stop offset="0.244792" stop-color="#92360B"/>
<stop offset="0.333333" stop-color="#ADC217"/>
<stop offset="0.66179" stop-color="#ADC217"/>
<stop offset="0.765147" stop-color="#2CAA00"/>
<stop offset="1" stop-color="#2CAA00"/>
</linearGradient>
<linearGradient id="paint11_linear" x1="-2.24402e-06" y1="10.5001" x2="316.978" y2="10.5001" gradientUnits="userSpaceOnUse">
<stop stop-color="#910000"/>
<stop offset="0.244792" stop-color="#92360B"/>
<stop offset="0.333333" stop-color="#ADC217"/>
<stop offset="0.66179" stop-color="#ADC217"/>
<stop offset="0.765147" stop-color="#2CAA00"/>
<stop offset="1" stop-color="#2CAA00"/>
</linearGradient>
<linearGradient id="paint12_linear" x1="-2.24402e-06" y1="10.5001" x2="316.978" y2="10.5001" gradientUnits="userSpaceOnUse">
<stop stop-color="#910000"/>
<stop offset="0.244792" stop-color="#92360B"/>
<stop offset="0.333333" stop-color="#ADC217"/>
<stop offset="0.66179" stop-color="#ADC217"/>
<stop offset="0.765147" stop-color="#2CAA00"/>
<stop offset="1" stop-color="#2CAA00"/>
</linearGradient>
<linearGradient id="paint13_linear" x1="-2.24402e-06" y1="10.5001" x2="316.978" y2="10.5001" gradientUnits="userSpaceOnUse">
<stop stop-color="#910000"/>
<stop offset="0.244792" stop-color="#92360B"/>
<stop offset="0.333333" stop-color="#ADC217"/>
<stop offset="0.66179" stop-color="#ADC217"/>
<stop offset="0.765147" stop-color="#2CAA00"/>
<stop offset="1" stop-color="#2CAA00"/>
</linearGradient>
<linearGradient id="paint14_linear" x1="-2.24402e-06" y1="10.5001" x2="316.978" y2="10.5001" gradientUnits="userSpaceOnUse">
<stop stop-color="#910000"/>
<stop offset="0.244792" stop-color="#92360B"/>
<stop offset="0.333333" stop-color="#ADC217"/>
<stop offset="0.66179" stop-color="#ADC217"/>
<stop offset="0.765147" stop-color="#2CAA00"/>
<stop offset="1" stop-color="#2CAA00"/>
</linearGradient>
<linearGradient id="paint15_linear" x1="-2.24402e-06" y1="10.5001" x2="316.978" y2="10.5001" gradientUnits="userSpaceOnUse">
<stop stop-color="#910000"/>
<stop offset="0.244792" stop-color="#92360B"/>
<stop offset="0.333333" stop-color="#ADC217"/>
<stop offset="0.66179" stop-color="#ADC217"/>
<stop offset="0.765147" stop-color="#2CAA00"/>
<stop offset="1" stop-color="#2CAA00"/>
</linearGradient>
<linearGradient id="paint16_linear" x1="-2.24402e-06" y1="10.5001" x2="316.978" y2="10.5001" gradientUnits="userSpaceOnUse">
<stop stop-color="#910000"/>
<stop offset="0.244792" stop-color="#92360B"/>
<stop offset="0.333333" stop-color="#ADC217"/>
<stop offset="0.66179" stop-color="#ADC217"/>
<stop offset="0.765147" stop-color="#2CAA00"/>
<stop offset="1" stop-color="#2CAA00"/>
</linearGradient>
<linearGradient id="paint17_linear" x1="-2.24402e-06" y1="10.5001" x2="316.978" y2="10.5001" gradientUnits="userSpaceOnUse">
<stop stop-color="#910000"/>
<stop offset="0.244792" stop-color="#92360B"/>
<stop offset="0.333333" stop-color="#ADC217"/>
<stop offset="0.66179" stop-color="#ADC217"/>
<stop offset="0.765147" stop-color="#2CAA00"/>
<stop offset="1" stop-color="#2CAA00"/>
</linearGradient>
</defs>
</svg>
