<svg width="192" height="38" viewBox="0 0 192 38" fill="none" xmlns="http://www.w3.org/2000/svg">
<path d="M0 1.22152C0 0.546894 0.546893 0 1.22152 0H6.61522C7.28984 0 7.83673 0.546893 7.83673 1.22152V36.7785C7.83673 37.4531 7.28984 38 6.61522 38H1.22152C0.546893 38 0 37.4531 0 36.7785V1.22152Z" fill="#C4C4C4"/>
<path d="M0 1.22152C0 0.546894 0.546893 0 1.22152 0H6.61522C7.28984 0 7.83673 0.546893 7.83673 1.22152V36.7785C7.83673 37.4531 7.28984 38 6.61522 38H1.22152C0.546893 38 0 37.4531 0 36.7785V1.22152Z" fill="url(#paint0_linear)"/>
<path d="M86.7638 1.22152C86.7638 0.546894 87.3107 0 87.9854 0H93.3791C94.0537 0 94.6006 0.546893 94.6006 1.22152V36.7785C94.6006 37.4531 94.0537 38 93.3791 38H87.9854C87.3107 38 86.7638 37.4531 86.7638 36.7785V1.22152Z" fill="#C4C4C4"/>
<path d="M86.7638 1.22152C86.7638 0.546894 87.3107 0 87.9854 0H93.3791C94.0537 0 94.6006 0.546893 94.6006 1.22152V36.7785C94.6006 37.4531 94.0537 38 93.3791 38H87.9854C87.3107 38 86.7638 37.4531 86.7638 36.7785V1.22152Z" fill="url(#paint1_linear)"/>
<path d="M43.102 1.22152C43.102 0.546894 43.6489 0 44.3236 0H50.277C50.9517 0 51.4985 0.546893 51.4985 1.22152V36.7785C51.4985 37.4531 50.9517 38 50.277 38H44.3236C43.6489 38 43.102 37.4531 43.102 36.7785V1.22152Z" fill="#C4C4C4"/>
<path d="M43.102 1.22152C43.102 0.546894 43.6489 0 44.3236 0H50.277C50.9517 0 51.4985 0.546893 51.4985 1.22152V36.7785C51.4985 37.4531 50.9517 38 50.277 38H44.3236C43.6489 38 43.102 37.4531 43.102 36.7785V1.22152Z" fill="url(#paint2_linear)"/>
<path d="M129.866 1.22152C129.866 0.546894 130.413 0 131.087 0H136.481C137.156 0 137.703 0.546893 137.703 1.22152V36.7785C137.703 37.4531 137.156 38 136.481 38H131.087C130.413 38 129.866 37.4531 129.866 36.7785V1.22152Z" fill="#C4C4C4"/>
<path d="M129.866 1.22152C129.866 0.546894 130.413 0 131.087 0H136.481C137.156 0 137.703 0.546893 137.703 1.22152V36.7785C137.703 37.4531 137.156 38 136.481 38H131.087C130.413 38 129.866 37.4531 129.866 36.7785V1.22152Z" fill="url(#paint3_linear)"/>
<path d="M10.6356 1.22152C10.6356 0.546894 11.1825 0 11.8571 0H17.8106C18.4852 0 19.0321 0.546893 19.0321 1.22152V36.7785C19.0321 37.4531 18.4852 38 17.8106 38H11.8571C11.1825 38 10.6356 37.4531 10.6356 36.7785V1.22152Z" fill="#C4C4C4"/>
<path d="M10.6356 1.22152C10.6356 0.546894 11.1825 0 11.8571 0H17.8106C18.4852 0 19.0321 0.546893 19.0321 1.22152V36.7785C19.0321 37.4531 18.4852 38 17.8106 38H11.8571C11.1825 38 10.6356 37.4531 10.6356 36.7785V1.22152Z" fill="url(#paint4_linear)"/>
<path d="M97.3994 1.22152C97.3994 0.546894 97.9463 0 98.6209 0H104.015C104.689 0 105.236 0.546893 105.236 1.22152V36.7785C105.236 37.4531 104.689 38 104.015 38H98.6209C97.9463 38 97.3994 37.4531 97.3994 36.7785V1.22152Z" fill="#C4C4C4"/>
<path d="M97.3994 1.22152C97.3994 0.546894 97.9463 0 98.6209 0H104.015C104.689 0 105.236 0.546893 105.236 1.22152V36.7785C105.236 37.4531 104.689 38 104.015 38H98.6209C97.9463 38 97.3994 37.4531 97.3994 36.7785V1.22152Z" fill="url(#paint5_linear)"/>
<path d="M54.2974 1.22152C54.2974 0.546894 54.8443 0 55.5189 0H60.9126C61.5872 0 62.1341 0.546893 62.1341 1.22152V36.7785C62.1341 37.4531 61.5872 38 60.9126 38H55.5189C54.8443 38 54.2974 37.4531 54.2974 36.7785V1.22152Z" fill="#C4C4C4"/>
<path d="M54.2974 1.22152C54.2974 0.546894 54.8443 0 55.5189 0H60.9126C61.5872 0 62.1341 0.546893 62.1341 1.22152V36.7785C62.1341 37.4531 61.5872 38 60.9126 38H55.5189C54.8443 38 54.2974 37.4531 54.2974 36.7785V1.22152Z" fill="url(#paint6_linear)"/>
<path d="M140.501 1.22152C140.501 0.546894 141.048 0 141.723 0H147.676C148.351 0 148.898 0.546893 148.898 1.22152V36.7785C148.898 37.4531 148.351 38 147.676 38H141.723C141.048 38 140.501 37.4531 140.501 36.7785V1.22152Z" fill="#C4C4C4"/>
<path d="M140.501 1.22152C140.501 0.546894 141.048 0 141.723 0H147.676C148.351 0 148.898 0.546893 148.898 1.22152V36.7785C148.898 37.4531 148.351 38 147.676 38H141.723C141.048 38 140.501 37.4531 140.501 36.7785V1.22152Z" fill="url(#paint7_linear)"/>
<path d="M172.968 1.22152C172.968 0.546894 173.515 0 174.189 0H180.143C180.818 0 181.364 0.546893 181.364 1.22152V36.7785C181.364 37.4531 180.818 38 180.143 38H174.189C173.515 38 172.968 37.4531 172.968 36.7785V1.22152Z" fill="#C4C4C4"/>
<path d="M172.968 1.22152C172.968 0.546894 173.515 0 174.189 0H180.143C180.818 0 181.364 0.546893 181.364 1.22152V36.7785C181.364 37.4531 180.818 38 180.143 38H174.189C173.515 38 172.968 37.4531 172.968 36.7785V1.22152Z" fill="url(#paint8_linear)"/>
<path d="M21.8309 1.22152C21.8309 0.546894 22.3778 0 23.0524 0H28.4461C29.1207 0 29.6676 0.546893 29.6676 1.22152V36.7785C29.6676 37.4531 29.1207 38 28.4461 38H23.0524C22.3778 38 21.8309 37.4531 21.8309 36.7785V1.22152Z" fill="#C4C4C4"/>
<path d="M21.8309 1.22152C21.8309 0.546894 22.3778 0 23.0524 0H28.4461C29.1207 0 29.6676 0.546893 29.6676 1.22152V36.7785C29.6676 37.4531 29.1207 38 28.4461 38H23.0524C22.3778 38 21.8309 37.4531 21.8309 36.7785V1.22152Z" fill="url(#paint9_linear)"/>
<path d="M108.035 1.22152C108.035 0.546894 108.582 0 109.257 0H115.21C115.885 0 116.431 0.546893 116.431 1.22152V36.7785C116.431 37.4531 115.885 38 115.21 38H109.257C108.582 38 108.035 37.4531 108.035 36.7785V1.22152Z" fill="#C4C4C4"/>
<path d="M108.035 1.22152C108.035 0.546894 108.582 0 109.257 0H115.21C115.885 0 116.431 0.546893 116.431 1.22152V36.7785C116.431 37.4531 115.885 38 115.21 38H109.257C108.582 38 108.035 37.4531 108.035 36.7785V1.22152Z" fill="url(#paint10_linear)"/>
<path d="M64.9329 1.22152C64.9329 0.546894 65.4798 0 66.1545 0H71.5482C72.2228 0 72.7697 0.546893 72.7697 1.22152V36.7785C72.7697 37.4531 72.2228 38 71.5482 38H66.1545C65.4798 38 64.9329 37.4531 64.9329 36.7785V1.22152Z" fill="#C4C4C4"/>
<path d="M64.9329 1.22152C64.9329 0.546894 65.4798 0 66.1545 0H71.5482C72.2228 0 72.7697 0.546893 72.7697 1.22152V36.7785C72.7697 37.4531 72.2228 38 71.5482 38H66.1545C65.4798 38 64.9329 37.4531 64.9329 36.7785V1.22152Z" fill="url(#paint11_linear)"/>
<path d="M151.697 1.22152C151.697 0.546894 152.244 0 152.918 0H158.312C158.987 0 159.534 0.546893 159.534 1.22152V36.7785C159.534 37.4531 158.987 38 158.312 38H152.918C152.244 38 151.697 37.4531 151.697 36.7785V1.22152Z" fill="#C4C4C4"/>
<path d="M151.697 1.22152C151.697 0.546894 152.244 0 152.918 0H158.312C158.987 0 159.534 0.546893 159.534 1.22152V36.7785C159.534 37.4531 158.987 38 158.312 38H152.918C152.244 38 151.697 37.4531 151.697 36.7785V1.22152Z" fill="url(#paint12_linear)"/>
<path d="M184.163 1.22152C184.163 0.546894 184.71 0 185.385 0H190.778C191.453 0 192 0.546893 192 1.22152V36.7785C192 37.4531 191.453 38 190.778 38H185.385C184.71 38 184.163 37.4531 184.163 36.7785V1.22152Z" fill="#C4C4C4"/>
<path d="M184.163 1.22152C184.163 0.546894 184.71 0 185.385 0H190.778C191.453 0 192 0.546893 192 1.22152V36.7785C192 37.4531 191.453 38 190.778 38H185.385C184.71 38 184.163 37.4531 184.163 36.7785V1.22152Z" fill="url(#paint13_linear)"/>
<path d="M32.4665 1.22152C32.4665 0.546894 33.0134 0 33.688 0H39.0817C39.7563 0 40.3032 0.546893 40.3032 1.22152V36.7785C40.3032 37.4531 39.7563 38 39.0817 38H33.688C33.0134 38 32.4665 37.4531 32.4665 36.7785V1.22152Z" fill="#C4C4C4"/>
<path d="M32.4665 1.22152C32.4665 0.546894 33.0134 0 33.688 0H39.0817C39.7563 0 40.3032 0.546893 40.3032 1.22152V36.7785C40.3032 37.4531 39.7563 38 39.0817 38H33.688C33.0134 38 32.4665 37.4531 32.4665 36.7785V1.22152Z" fill="url(#paint14_linear)"/>
<path d="M119.23 1.22152C119.23 0.546894 119.777 0 120.452 0H125.846C126.52 0 127.067 0.546893 127.067 1.22152V36.7785C127.067 37.4531 126.52 38 125.846 38H120.452C119.777 38 119.23 37.4531 119.23 36.7785V1.22152Z" fill="#C4C4C4"/>
<path d="M119.23 1.22152C119.23 0.546894 119.777 0 120.452 0H125.846C126.52 0 127.067 0.546893 127.067 1.22152V36.7785C127.067 37.4531 126.52 38 125.846 38H120.452C119.777 38 119.23 37.4531 119.23 36.7785V1.22152Z" fill="url(#paint15_linear)"/>
<path d="M75.5685 1.22152C75.5685 0.546894 76.1154 0 76.79 0H82.7435C83.4181 0 83.965 0.546893 83.965 1.22152V36.7785C83.965 37.4531 83.4181 38 82.7435 38H76.79C76.1154 38 75.5685 37.4531 75.5685 36.7785V1.22152Z" fill="#C4C4C4"/>
<path d="M75.5685 1.22152C75.5685 0.546894 76.1154 0 76.79 0H82.7435C83.4181 0 83.965 0.546893 83.965 1.22152V36.7785C83.965 37.4531 83.4181 38 82.7435 38H76.79C76.1154 38 75.5685 37.4531 75.5685 36.7785V1.22152Z" fill="url(#paint16_linear)"/>
<path d="M162.332 1.22152C162.332 0.546894 162.879 0 163.554 0H168.948C169.622 0 170.169 0.546893 170.169 1.22152V36.7785C170.169 37.4531 169.622 38 168.948 38H163.554C162.879 38 162.332 37.4531 162.332 36.7785V1.22152Z" fill="#C4C4C4"/>
<path d="M162.332 1.22152C162.332 0.546894 162.879 0 163.554 0H168.948C169.622 0 170.169 0.546893 170.169 1.22152V36.7785C170.169 37.4531 169.622 38 168.948 38H163.554C162.879 38 162.332 37.4531 162.332 36.7785V1.22152Z" fill="url(#paint17_linear)"/>
<defs>
<linearGradient id="paint0_linear" x1="-1.36346e-06" y1="19.0002" x2="192.594" y2="19.0002" gradientUnits="userSpaceOnUse">
<stop stop-color="#910000"/>
<stop offset="0.244792" stop-color="#92360B"/>
<stop offset="0.333333" stop-color="#ADC217"/>
<stop offset="0.66179" stop-color="#ADC217"/>
<stop offset="0.765147" stop-color="#2CAA00"/>
<stop offset="1" stop-color="#2CAA00"/>
</linearGradient>
<linearGradient id="paint1_linear" x1="-1.36346e-06" y1="19.0002" x2="192.594" y2="19.0002" gradientUnits="userSpaceOnUse">
<stop stop-color="#910000"/>
<stop offset="0.244792" stop-color="#92360B"/>
<stop offset="0.333333" stop-color="#ADC217"/>
<stop offset="0.66179" stop-color="#ADC217"/>
<stop offset="0.765147" stop-color="#2CAA00"/>
<stop offset="1" stop-color="#2CAA00"/>
</linearGradient>
<linearGradient id="paint2_linear" x1="-1.36346e-06" y1="19.0002" x2="192.594" y2="19.0002" gradientUnits="userSpaceOnUse">
<stop stop-color="#910000"/>
<stop offset="0.244792" stop-color="#92360B"/>
<stop offset="0.333333" stop-color="#ADC217"/>
<stop offset="0.66179" stop-color="#ADC217"/>
<stop offset="0.765147" stop-color="#2CAA00"/>
<stop offset="1" stop-color="#2CAA00"/>
</linearGradient>
<linearGradient id="paint3_linear" x1="-1.36346e-06" y1="19.0002" x2="192.594" y2="19.0002" gradientUnits="userSpaceOnUse">
<stop stop-color="#910000"/>
<stop offset="0.244792" stop-color="#92360B"/>
<stop offset="0.333333" stop-color="#ADC217"/>
<stop offset="0.66179" stop-color="#ADC217"/>
<stop offset="0.765147" stop-color="#2CAA00"/>
<stop offset="1" stop-color="#2CAA00"/>
</linearGradient>
<linearGradient id="paint4_linear" x1="-1.36346e-06" y1="19.0002" x2="192.594" y2="19.0002" gradientUnits="userSpaceOnUse">
<stop stop-color="#910000"/>
<stop offset="0.244792" stop-color="#92360B"/>
<stop offset="0.333333" stop-color="#ADC217"/>
<stop offset="0.66179" stop-color="#ADC217"/>
<stop offset="0.765147" stop-color="#2CAA00"/>
<stop offset="1" stop-color="#2CAA00"/>
</linearGradient>
<linearGradient id="paint5_linear" x1="-1.36346e-06" y1="19.0002" x2="192.594" y2="19.0002" gradientUnits="userSpaceOnUse">
<stop stop-color="#910000"/>
<stop offset="0.244792" stop-color="#92360B"/>
<stop offset="0.333333" stop-color="#ADC217"/>
<stop offset="0.66179" stop-color="#ADC217"/>
<stop offset="0.765147" stop-color="#2CAA00"/>
<stop offset="1" stop-color="#2CAA00"/>
</linearGradient>
<linearGradient id="paint6_linear" x1="-1.36346e-06" y1="19.0002" x2="192.594" y2="19.0002" gradientUnits="userSpaceOnUse">
<stop stop-color="#910000"/>
<stop offset="0.244792" stop-color="#92360B"/>
<stop offset="0.333333" stop-color="#ADC217"/>
<stop offset="0.66179" stop-color="#ADC217"/>
<stop offset="0.765147" stop-color="#2CAA00"/>
<stop offset="1" stop-color="#2CAA00"/>
</linearGradient>
<linearGradient id="paint7_linear" x1="-1.36346e-06" y1="19.0002" x2="192.594" y2="19.0002" gradientUnits="userSpaceOnUse">
<stop stop-color="#910000"/>
<stop offset="0.244792" stop-color="#92360B"/>
<stop offset="0.333333" stop-color="#ADC217"/>
<stop offset="0.66179" stop-color="#ADC217"/>
<stop offset="0.765147" stop-color="#2CAA00"/>
<stop offset="1" stop-color="#2CAA00"/>
</linearGradient>
<linearGradient id="paint8_linear" x1="-1.36346e-06" y1="19.0002" x2="192.594" y2="19.0002" gradientUnits="userSpaceOnUse">
<stop stop-color="#910000"/>
<stop offset="0.244792" stop-color="#92360B"/>
<stop offset="0.333333" stop-color="#ADC217"/>
<stop offset="0.66179" stop-color="#ADC217"/>
<stop offset="0.765147" stop-color="#2CAA00"/>
<stop offset="1" stop-color="#2CAA00"/>
</linearGradient>
<linearGradient id="paint9_linear" x1="-1.36346e-06" y1="19.0002" x2="192.594" y2="19.0002" gradientUnits="userSpaceOnUse">
<stop stop-color="#910000"/>
<stop offset="0.244792" stop-color="#92360B"/>
<stop offset="0.333333" stop-color="#ADC217"/>
<stop offset="0.66179" stop-color="#ADC217"/>
<stop offset="0.765147" stop-color="#2CAA00"/>
<stop offset="1" stop-color="#2CAA00"/>
</linearGradient>
<linearGradient id="paint10_linear" x1="-1.36346e-06" y1="19.0002" x2="192.594" y2="19.0002" gradientUnits="userSpaceOnUse">
<stop stop-color="#910000"/>
<stop offset="0.244792" stop-color="#92360B"/>
<stop offset="0.333333" stop-color="#ADC217"/>
<stop offset="0.66179" stop-color="#ADC217"/>
<stop offset="0.765147" stop-color="#2CAA00"/>
<stop offset="1" stop-color="#2CAA00"/>
</linearGradient>
<linearGradient id="paint11_linear" x1="-1.36346e-06" y1="19.0002" x2="192.594" y2="19.0002" gradientUnits="userSpaceOnUse">
<stop stop-color="#910000"/>
<stop offset="0.244792" stop-color="#92360B"/>
<stop offset="0.333333" stop-color="#ADC217"/>
<stop offset="0.66179" stop-color="#ADC217"/>
<stop offset="0.765147" stop-color="#2CAA00"/>
<stop offset="1" stop-color="#2CAA00"/>
</linearGradient>
<linearGradient id="paint12_linear" x1="-1.36346e-06" y1="19.0002" x2="192.594" y2="19.0002" gradientUnits="userSpaceOnUse">
<stop stop-color="#910000"/>
<stop offset="0.244792" stop-color="#92360B"/>
<stop offset="0.333333" stop-color="#ADC217"/>
<stop offset="0.66179" stop-color="#ADC217"/>
<stop offset="0.765147" stop-color="#2CAA00"/>
<stop offset="1" stop-color="#2CAA00"/>
</linearGradient>
<linearGradient id="paint13_linear" x1="-1.36346e-06" y1="19.0002" x2="192.594" y2="19.0002" gradientUnits="userSpaceOnUse">
<stop stop-color="#910000"/>
<stop offset="0.244792" stop-color="#92360B"/>
<stop offset="0.333333" stop-color="#ADC217"/>
<stop offset="0.66179" stop-color="#ADC217"/>
<stop offset="0.765147" stop-color="#2CAA00"/>
<stop offset="1" stop-color="#2CAA00"/>
</linearGradient>
<linearGradient id="paint14_linear" x1="-1.36346e-06" y1="19.0002" x2="192.594" y2="19.0002" gradientUnits="userSpaceOnUse">
<stop stop-color="#910000"/>
<stop offset="0.244792" stop-color="#92360B"/>
<stop offset="0.333333" stop-color="#ADC217"/>
<stop offset="0.66179" stop-color="#ADC217"/>
<stop offset="0.765147" stop-color="#2CAA00"/>
<stop offset="1" stop-color="#2CAA00"/>
</linearGradient>
<linearGradient id="paint15_linear" x1="-1.36346e-06" y1="19.0002" x2="192.594" y2="19.0002" gradientUnits="userSpaceOnUse">
<stop stop-color="#910000"/>
<stop offset="0.244792" stop-color="#92360B"/>
<stop offset="0.333333" stop-color="#ADC217"/>
<stop offset="0.66179" stop-color="#ADC217"/>
<stop offset="0.765147" stop-color="#2CAA00"/>
<stop offset="1" stop-color="#2CAA00"/>
</linearGradient>
<linearGradient id="paint16_linear" x1="-1.36346e-06" y1="19.0002" x2="192.594" y2="19.0002" gradientUnits="userSpaceOnUse">
<stop stop-color="#910000"/>
<stop offset="0.244792" stop-color="#92360B"/>
<stop offset="0.333333" stop-color="#ADC217"/>
<stop offset="0.66179" stop-color="#ADC217"/>
<stop offset="0.765147" stop-color="#2CAA00"/>
<stop offset="1" stop-color="#2CAA00"/>
</linearGradient>
<linearGradient id="paint17_linear" x1="-1.36346e-06" y1="19.0002" x2="192.594" y2="19.0002" gradientUnits="userSpaceOnUse">
<stop stop-color="#910000"/>
<stop offset="0.244792" stop-color="#92360B"/>
<stop offset="0.333333" stop-color="#ADC217"/>
<stop offset="0.66179" stop-color="#ADC217"/>
<stop offset="0.765147" stop-color="#2CAA00"/>
<stop offset="1" stop-color="#2CAA00"/>
</linearGradient>
</defs>
</svg>
