<svg width="157" height="68" viewBox="0 0 157 68" fill="none" xmlns="http://www.w3.org/2000/svg">
<path d="M45.4194 33.8089C49.5282 31.2402 52.6113 27.5723 52.6113 22.5083C52.6113 4.30989 23.6267 5.99683 11.4443 5.99683C10.9299 5.99683 10.5625 6.36425 10.5625 6.87864L10.636 60.7423C10.636 61.2567 11.0034 61.6242 11.5178 61.6242C23.7001 61.6242 52.6848 63.3111 52.6848 45.1126C52.6848 40.0454 49.5313 36.3776 45.4194 33.8089ZM38.0071 23.4636C38.0071 28.0867 30.8888 29.042 27.4414 29.2593L27.368 17.2239C31.3297 17.2239 38.0071 18.1057 38.0071 23.4636ZM27.4414 50.3939L27.5149 38.3585C30.9655 38.579 38.0806 39.4608 38.0806 44.0839C38.0806 49.4386 31.4032 50.3939 27.4414 50.3939Z" fill="white"/>
<path d="M77.8226 7.24622C61.9405 7.24622 58.8989 36.6366 58.8989 36.6366L54.0043 57.8064V58.0268C54.0043 58.5412 54.3717 58.9086 54.8861 58.9086L99.6506 60.3016C100.165 60.3016 100.532 59.9342 100.532 59.4198V59.2728L95.8262 37.9178C95.8262 37.9178 93.7048 7.24622 77.8226 7.24622ZM77.6469 44.378C76.2348 44.378 75.091 43.2342 75.091 41.822C75.091 40.4098 76.2348 39.266 77.6469 39.266C79.0591 39.266 80.2029 40.4098 80.2029 41.822C80.2029 43.231 79.0591 44.378 77.6469 44.378ZM62.2249 37.1318C62.2249 37.1318 64.0205 8.48905 77.8226 9.24306C91.6248 10.0003 92.0977 37.3203 92.0977 37.3203L62.2249 37.1318Z" fill="white"/>
<path d="M143.313 29.4062C143.313 28.8918 142.872 28.5979 142.358 28.5979L122.178 29.9174C121.737 29.9174 121.37 30.3583 121.37 30.7992L121.223 37.8441C121.223 38.3585 121.59 38.7994 122.105 38.7994L128.562 38.6524L128.782 44.889C127.463 45.2564 126.066 45.4033 124.673 45.4033C117.776 45.4033 115.06 40.6333 115.06 34.3233C115.06 23.0962 124.453 19.4987 134.214 19.4987C135.242 19.4987 136.341 19.6456 137.37 19.6456C137.958 19.6456 138.399 19.2782 138.326 18.6903L136.271 4.89454C136.124 4.01273 135.025 4.1597 134.364 4.1597C115.284 4.1597 99.6538 13.1854 99.6538 33.7322C99.6538 50.0967 110.881 59.6369 126.511 59.6369C131.795 59.6369 140.159 58.0234 143.904 53.9147C144.051 53.7677 144.124 53.4738 144.124 53.2533L143.313 29.4062Z" fill="white"/>
</svg>
