<svg width="19" height="20" viewBox="0 0 19 20" fill="none" xmlns="http://www.w3.org/2000/svg">
<path d="M17.4486 0L15.7202 1.48148L15.8436 1.70782L15.144 2.09876L14.856 1.56379L14.4444 1.79012L14.7325 2.3251L14.321 2.55144L14.0329 2.01646L13.6214 2.2428L13.9095 2.77778L13.4979 3.00412L13.2099 2.46914L12.7983 2.69547L13.0864 3.23045L12.3868 3.6214L12.037 2.96296L7.44855 5.47325L7.86007 6.23457C8.14814 6.74897 7.94238 7.38683 7.42798 7.6749L4.77365 9.11523C4.25925 9.40329 3.62139 9.19753 3.33332 8.68313L2.9218 7.92181L1.48147 8.7037L0.864188 8.06584L0.555546 8.23045L0.967068 8.99177L0.452665 9.27984L0 10.535L0.987652 12.3457C1.27572 12.1811 1.62551 12.3251 1.72839 12.6543C2.46913 14.9383 0.884774 16.8313 2.36626 19.5267L2.63374 20L6.09053 18.107L5.82304 17.6337L5.55556 17.7778L4.95884 13.0658C5.45267 13.3128 6.06995 13.3333 6.60493 13.0453L8.00411 12.284C8.84773 11.8313 9.15638 10.7613 8.7037 9.9177C8.37448 9.32099 7.7572 8.99177 7.11934 9.01235L8.76543 8.107L11.6872 15.0823L11.749 15.0617L14.5473 13.5391L14.8354 13.3745L14.5679 12.9012L14.321 13.0247L11.6461 6.52263L13.4362 5.55556L13.0864 4.89712L13.786 4.50617L14.0741 5.04115L14.4856 4.81481L14.1975 4.27983L14.6091 4.0535L14.8971 4.58848L15.3086 4.36214L15.0206 3.82716L15.4321 3.60082L15.7202 4.1358L16.1317 3.90947L15.8436 3.37448L16.5432 2.98354L16.6667 3.20988L18.8477 2.55144L17.4486 0ZM3.29218 13.642C3.58025 13.4774 3.95062 13.5802 4.11523 13.8889C4.27984 14.177 4.17695 14.5473 3.86831 14.7119C3.58024 14.8765 3.20987 14.7737 3.04527 14.465C2.88066 14.177 3.00412 13.8066 3.29218 13.642ZM4.01235 18.3745C3.72428 18.5391 3.35391 18.4362 3.1893 18.1276C3.02469 17.8395 3.12756 17.4691 3.4362 17.3045C3.72427 17.1399 4.09464 17.2428 4.25925 17.5514C4.42386 17.8395 4.32099 18.2099 4.01235 18.3745ZM8.00411 10.2675C8.25102 10.7202 8.08642 11.2757 7.63374 11.5226L6.23457 12.284C5.78189 12.5309 5.22633 12.3663 4.97941 11.9136C4.75308 11.5021 4.87654 11.0288 5.20576 10.7407C5.47325 11.1934 5.90535 11.6872 6.58436 11.6049C6.70782 11.5844 6.76954 11.4815 6.76954 11.3786C6.74896 11.2757 6.64609 11.1934 6.54321 11.1934C6.09053 11.2551 5.76132 10.8848 5.55556 10.535L6.74897 9.89712C7.20164 9.65021 7.75719 9.83539 8.00411 10.2675ZM12.1399 12.8189C11.0288 12.4897 10.5144 10.4115 10.3292 9.32099C10.2675 9.01235 10.5967 8.76543 10.8848 8.88889C13.5185 10.0617 13.5597 13.2099 12.1399 12.8189Z" fill="white"/>
<path d="M4.52679 8.498L6.93419 7.18113C7.13995 7.05767 7.22226 6.81076 7.09881 6.605L6.68728 5.86426L3.51855 7.59265L3.93008 8.33339C4.05353 8.53916 4.32103 8.62146 4.52679 8.498Z" fill="white"/>
</svg>
