<svg width="43" height="39" viewBox="0 0 43 39" fill="none" xmlns="http://www.w3.org/2000/svg">
<g filter="url(#filter0_d)">
<path d="M21.5 0.03125C11.8678 0.03125 4.03125 7.86783 4.03125 17.5C4.03125 27.1322 11.8678 34.9688 21.5 34.9688C31.1322 34.9688 38.9688 27.1322 38.9688 17.5C38.9688 7.86783 31.1322 0.03125 21.5 0.03125ZM27.8249 21.9251C27.9549 22.0487 28.0589 22.197 28.1307 22.3614C28.2025 22.5257 28.2407 22.7028 28.243 22.8821C28.2453 23.0615 28.2116 23.2395 28.1441 23.4056C28.0765 23.5717 27.9763 23.7227 27.8495 23.8495C27.7227 23.9763 27.5717 24.0765 27.4056 24.1441C27.2395 24.2116 27.0615 24.2453 26.8821 24.243C26.7028 24.2407 26.5257 24.2025 26.3614 24.1307C26.197 24.0589 26.0487 23.9549 25.9251 23.8249L21.5 19.4006L17.0749 23.8249C16.8208 24.0662 16.4825 24.1988 16.1321 24.1943C15.7817 24.1898 15.4469 24.0486 15.1992 23.8008C14.9514 23.5531 14.8102 23.2183 14.8057 22.8679C14.8012 22.5175 14.9338 22.1792 15.1751 21.9251L19.5994 17.5L15.1751 13.0749C14.9338 12.8208 14.8012 12.4825 14.8057 12.1321C14.8102 11.7817 14.9514 11.4469 15.1992 11.1992C15.4469 10.9514 15.7817 10.8102 16.1321 10.8057C16.4825 10.8012 16.8208 10.9338 17.0749 11.1751L21.5 15.5994L25.9251 11.1751C26.1792 10.9338 26.5175 10.8012 26.8679 10.8057C27.2183 10.8102 27.5531 10.9514 27.8008 11.1992C28.0486 11.4469 28.1898 11.7817 28.1943 12.1321C28.1988 12.4825 28.0662 12.8208 27.8249 13.0749L23.4006 17.5L27.8249 21.9251Z" fill="#FFE81F"/>
</g>
<defs>
<filter id="filter0_d" x="0.03125" y="0.03125" width="42.9375" height="42.9375" filterUnits="userSpaceOnUse" color-interpolation-filters="sRGB">
<feFlood flood-opacity="0" result="BackgroundImageFix"/>
<feColorMatrix in="SourceAlpha" type="matrix" values="0 0 0 0 0 0 0 0 0 0 0 0 0 0 0 0 0 0 127 0"/>
<feOffset dy="4"/>
<feGaussianBlur stdDeviation="2"/>
<feColorMatrix type="matrix" values="0 0 0 0 0 0 0 0 0 0 0 0 0 0 0 0 0 0 0.25 0"/>
<feBlend mode="normal" in2="BackgroundImageFix" result="effect1_dropShadow"/>
<feBlend mode="normal" in="SourceGraphic" in2="effect1_dropShadow" result="shape"/>
</filter>
</defs>
</svg>
