<svg width="22" height="17" viewBox="0 0 22 17" fill="none" xmlns="http://www.w3.org/2000/svg">
<g filter="url(#filter0_d)">
<path d="M16.2321 7.23242C14.858 5.8574 12.9969 5.10059 10.9916 5.10059C8.9864 5.10059 7.12532 5.8574 5.75122 7.23242L7.05786 8.53906C8.08358 7.51334 9.47985 6.94781 10.9916 6.94781C12.5034 6.94873 13.8997 7.51334 14.9254 8.53906L16.2321 7.23242Z" fill="white"/>
</g>
<g filter="url(#filter1_d)">
<path d="M18.7882 4.44571C14.5633 0.219921 7.42115 0.219921 3.19629 4.44571L4.50293 5.75234C8.02087 2.2344 13.9636 2.2344 17.4815 5.75234L18.7882 4.44571Z" fill="white"/>
</g>
<g filter="url(#filter2_d)">
<path d="M10.9917 12.4932C12.0124 12.4932 12.8398 11.6657 12.8398 10.645C12.8398 9.62432 12.0124 8.79688 10.9917 8.79688C9.971 8.79688 9.14355 9.62432 9.14355 10.645C9.14355 11.6657 9.971 12.4932 10.9917 12.4932Z" fill="white"/>
</g>
<defs>
<filter id="filter0_d" x="3.35247" y="3.90121" width="15.2783" height="8.23598" filterUnits="userSpaceOnUse" color-interpolation-filters="sRGB">
<feFlood flood-opacity="0" result="BackgroundImageFix"/>
<feColorMatrix in="SourceAlpha" type="matrix" values="0 0 0 0 0 0 0 0 0 0 0 0 0 0 0 0 0 0 127 0"/>
<feOffset dy="1.19938"/>
<feGaussianBlur stdDeviation="1.19938"/>
<feColorMatrix type="matrix" values="0 0 0 0 0 0 0 0 0 0 0 0 0 0 0 0 0 0 0.25 0"/>
<feBlend mode="normal" in2="BackgroundImageFix" result="effect1_dropShadow"/>
<feBlend mode="normal" in="SourceGraphic" in2="effect1_dropShadow" result="shape"/>
</filter>
<filter id="filter1_d" x="0.797538" y="0.0769918" width="20.3894" height="9.27348" filterUnits="userSpaceOnUse" color-interpolation-filters="sRGB">
<feFlood flood-opacity="0" result="BackgroundImageFix"/>
<feColorMatrix in="SourceAlpha" type="matrix" values="0 0 0 0 0 0 0 0 0 0 0 0 0 0 0 0 0 0 127 0"/>
<feOffset dy="1.19938"/>
<feGaussianBlur stdDeviation="1.19938"/>
<feColorMatrix type="matrix" values="0 0 0 0 0 0 0 0 0 0 0 0 0 0 0 0 0 0 0.25 0"/>
<feBlend mode="normal" in2="BackgroundImageFix" result="effect1_dropShadow"/>
<feBlend mode="normal" in="SourceGraphic" in2="effect1_dropShadow" result="shape"/>
</filter>
<filter id="filter2_d" x="6.7448" y="7.5975" width="8.49379" height="8.49379" filterUnits="userSpaceOnUse" color-interpolation-filters="sRGB">
<feFlood flood-opacity="0" result="BackgroundImageFix"/>
<feColorMatrix in="SourceAlpha" type="matrix" values="0 0 0 0 0 0 0 0 0 0 0 0 0 0 0 0 0 0 127 0"/>
<feOffset dy="1.19938"/>
<feGaussianBlur stdDeviation="1.19938"/>
<feColorMatrix type="matrix" values="0 0 0 0 0 0 0 0 0 0 0 0 0 0 0 0 0 0 0.25 0"/>
<feBlend mode="normal" in2="BackgroundImageFix" result="effect1_dropShadow"/>
<feBlend mode="normal" in="SourceGraphic" in2="effect1_dropShadow" result="shape"/>
</filter>
</defs>
</svg>
