<svg width="16" height="12" viewBox="0 0 16 12" fill="none" xmlns="http://www.w3.org/2000/svg">
<g clip-path="url(#clip0)">
<path d="M10.4998 6C10.4998 6.66304 10.2364 7.29893 9.76752 7.76777C9.29868 8.23661 8.6628 8.5 7.99976 8.5C7.33671 8.5 6.70083 8.23661 6.23199 7.76777C5.76315 7.29893 5.49976 6.66304 5.49976 6C5.49976 5.33696 5.76315 4.70107 6.23199 4.23223C6.70083 3.76339 7.33671 3.5 7.99976 3.5C8.6628 3.5 9.29868 3.76339 9.76752 4.23223C10.2364 4.70107 10.4998 5.33696 10.4998 6V6Z" fill="#FFE81F"/>
<path d="M-0.000244141 6C-0.000244141 6 2.99976 0.5 7.99976 0.5C12.9998 0.5 15.9998 6 15.9998 6C15.9998 6 12.9998 11.5 7.99976 11.5C2.99976 11.5 -0.000244141 6 -0.000244141 6ZM7.99976 9.5C8.92801 9.5 9.81825 9.13125 10.4746 8.47487C11.131 7.8185 11.4998 6.92826 11.4998 6C11.4998 5.07174 11.131 4.1815 10.4746 3.52513C9.81825 2.86875 8.92801 2.5 7.99976 2.5C7.0715 2.5 6.18126 2.86875 5.52488 3.52513C4.86851 4.1815 4.49976 5.07174 4.49976 6C4.49976 6.92826 4.86851 7.8185 5.52488 8.47487C6.18126 9.13125 7.0715 9.5 7.99976 9.5V9.5Z" fill="#FFE81F"/>
</g>
<defs>
<clipPath id="clip0">
<rect width="16" height="12" fill="white"/>
</clipPath>
</defs>
</svg>
