<svg width="41" height="41" viewBox="0 0 41 41" fill="none" xmlns="http://www.w3.org/2000/svg">
<circle cx="20.5" cy="20.5" r="20.5" fill="#9D9D9D"/>
<circle cx="20.5" cy="20.4997" r="16.5" transform="rotate(-165 20.5 20.4997)" fill="url(#paint0_linear)"/>
<g filter="url(#filter0_d)">
<path d="M7.94263 13.2498C11.9467 6.31451 20.8148 3.93832 27.75 7.94238V7.94238C34.6852 11.9464 37.0614 20.8145 33.0574 27.7498V27.7498C29.0533 34.685 20.1852 37.0612 13.25 33.0571V33.0571C6.31475 29.0531 3.93856 20.185 7.94263 13.2498V13.2498Z" fill="url(#paint1_linear)"/>
</g>
<path d="M6.50027 19.3304C8.50029 8.99972 17.0002 5.49971 23.2089 6.9998C26 7.99976 26.7977 9.63847 25.3835 11.5022C24.6265 12.4998 18.1247 10.4718 13 13.4996C9.5 15.4998 6.31244 21.2297 6.50027 19.3304Z" fill="white" fill-opacity="0.2"/>
<defs>
<filter id="filter0_d" x="2.99756" y="2.99707" width="37.0048" height="37.0048" filterUnits="userSpaceOnUse" color-interpolation-filters="sRGB">
<feFlood flood-opacity="0" result="BackgroundImageFix"/>
<feColorMatrix in="SourceAlpha" type="matrix" values="0 0 0 0 0 0 0 0 0 0 0 0 0 0 0 0 0 0 127 0"/>
<feOffset dx="1" dy="1"/>
<feGaussianBlur stdDeviation="2"/>
<feColorMatrix type="matrix" values="0 0 0 0 0 0 0 0 0 0 0 0 0 0 0 0 0 0 0.75 0"/>
<feBlend mode="normal" in2="BackgroundImageFix" result="effect1_dropShadow"/>
<feBlend mode="normal" in="SourceGraphic" in2="effect1_dropShadow" result="shape"/>
</filter>
<linearGradient id="paint0_linear" x1="3.99998" y1="14.6069" x2="37.3785" y2="29.0537" gradientUnits="userSpaceOnUse">
<stop stop-color="#00E64E"/>
<stop offset="1" stop-color="#006B25"/>
</linearGradient>
<linearGradient id="paint1_linear" x1="10.5319" y1="8.76498" x2="29.5869" y2="34.4261" gradientUnits="userSpaceOnUse">
<stop stop-color="#00E64E"/>
<stop offset="1" stop-color="#006B25"/>
</linearGradient>
</defs>
</svg>
