<svg width="48" height="52" viewBox="0 0 48 52" fill="none" xmlns="http://www.w3.org/2000/svg">
<g clip-path="url(#clip0)">
<g filter="url(#filter0_d)">
<path d="M2.81116 25.6385C1.81061 22.8593 5.00591 20.4593 7.39627 22.1946L10.3497 24.3387C11.7234 25.336 13.6502 24.9958 14.5993 23.5884L27.2978 4.75987C28.2456 3.35459 30.1685 3.01299 31.5423 4.00585L41.8811 11.478C43.2949 12.4997 43.5421 14.5076 42.4185 15.8419L27.8874 33.0969C26.7654 34.4292 27.0101 36.4338 28.4196 37.457L31.8127 39.9203C34.064 41.5547 33.0709 45.1075 30.2985 45.3377L12.787 46.7918C11.4348 46.904 10.1756 46.0948 9.71606 44.8182L2.81116 25.6385Z" fill="black"/>
<path d="M2.81116 25.6385C1.81061 22.8593 5.00591 20.4593 7.39627 22.1946L10.3497 24.3387C11.7234 25.336 13.6502 24.9958 14.5993 23.5884L27.2978 4.75987C28.2456 3.35459 30.1685 3.01299 31.5423 4.00585L41.8811 11.478C43.2949 12.4997 43.5421 14.5076 42.4185 15.8419L27.8874 33.0969C26.7654 34.4292 27.0101 36.4338 28.4196 37.457L31.8127 39.9203C34.064 41.5547 33.0709 45.1075 30.2985 45.3377L12.787 46.7918C11.4348 46.904 10.1756 46.0948 9.71606 44.8182L2.81116 25.6385Z" fill="url(#paint0_linear)"/>
<path d="M7.10253 22.5992L10.0559 24.7433C11.6586 25.9068 13.9065 25.5099 15.0139 23.868L27.7124 5.03944C28.5022 3.86838 30.1046 3.58371 31.2494 4.4111L41.5882 11.8832C42.7664 12.7347 42.9724 14.4079 42.0361 15.5198L27.5049 32.7748C26.1959 34.3292 26.4814 36.6678 28.1259 37.8617L31.5189 40.3249C33.395 41.6869 32.5675 44.6476 30.2571 44.8395L12.7456 46.2935C11.6188 46.3871 10.5695 45.7127 10.1865 44.6489L3.2816 25.4691C2.44781 23.1531 5.11056 21.1531 7.10253 22.5992Z" stroke="#2A7805"/>
</g>
<path d="M20.5986 44.2964C15.8125 47.0523 9.69852 45.4065 6.94263 40.6203L-13.0173 5.95624L25.1132 -15.9997L45.0732 18.6644C47.829 23.4505 46.1832 29.5645 41.3971 32.3204L20.5986 44.2964Z" fill="url(#paint1_radial)" fill-opacity="0.7"/>
<g filter="url(#filter1_d)">
<path d="M6.58249 31.7788C6.08892 30.3634 7.27018 28.9282 8.75404 29.1404L8.84066 29.1527C8.94673 29.1679 9.05385 29.1745 9.16099 29.1725L12.5403 29.1096C12.9712 29.1016 13.388 28.9546 13.7286 28.6905L35.5765 11.7503C37.3808 10.3513 39.7433 12.5816 38.4504 14.4634L25.0839 33.9185C24.4413 34.8537 24.7047 36.1357 25.664 36.7418L31.8133 40.6273C33.4531 41.6635 32.8058 44.193 30.8698 44.3141L12.8929 45.4386C11.9978 45.4946 11.1749 44.9479 10.8796 44.101L6.58249 31.7788Z" fill="url(#paint2_linear)" fill-opacity="0.1"/>
</g>
<path d="M29.5222 5.25871C34.8661 6.65308 38.0679 12.1156 36.6735 17.4595L26.5746 56.1636L-16 45.0548L-5.90106 6.35065C-4.50669 1.00672 0.955785 -2.19503 6.29971 -0.800653L29.5222 5.25871Z" fill="url(#paint3_radial)" fill-opacity="0.7"/>
</g>
<defs>
<filter id="filter0_d" x="0.622681" y="1.43701" width="48.5013" height="51.3651" filterUnits="userSpaceOnUse" color-interpolation-filters="sRGB">
<feFlood flood-opacity="0" result="BackgroundImageFix"/>
<feColorMatrix in="SourceAlpha" type="matrix" values="0 0 0 0 0 0 0 0 0 0 0 0 0 0 0 0 0 0 127 0"/>
<feOffset dx="2" dy="2"/>
<feGaussianBlur stdDeviation="2"/>
<feColorMatrix type="matrix" values="0 0 0 0 0 0 0 0 0 0 0 0 0 0 0 0 0 0 0.25 0"/>
<feBlend mode="normal" in2="BackgroundImageFix" result="effect1_dropShadow"/>
<feBlend mode="normal" in="SourceGraphic" in2="effect1_dropShadow" result="shape"/>
</filter>
<filter id="filter1_d" x="4.46857" y="9.31165" width="40.3527" height="42.1309" filterUnits="userSpaceOnUse" color-interpolation-filters="sRGB">
<feFlood flood-opacity="0" result="BackgroundImageFix"/>
<feColorMatrix in="SourceAlpha" type="matrix" values="0 0 0 0 0 0 0 0 0 0 0 0 0 0 0 0 0 0 127 0"/>
<feOffset dx="2" dy="2"/>
<feGaussianBlur stdDeviation="2"/>
<feColorMatrix type="matrix" values="0 0 0 0 0 0 0 0 0 0 0 0 0 0 0 0 0 0 0.25 0"/>
<feBlend mode="normal" in2="BackgroundImageFix" result="effect1_dropShadow"/>
<feBlend mode="normal" in="SourceGraphic" in2="effect1_dropShadow" result="shape"/>
</filter>
<linearGradient id="paint0_linear" x1="39.4717" y1="8.15212" x2="15.4138" y2="49.8217" gradientUnits="userSpaceOnUse">
<stop stop-color="#56FF06"/>
<stop offset="1" stop-color="#319900"/>
</linearGradient>
<radialGradient id="paint1_radial" cx="0" cy="0" r="1" gradientUnits="userSpaceOnUse" gradientTransform="translate(15.7271 42.8501) rotate(-20.6738) scale(3.0975 1.68409)">
<stop offset="0.9999" stop-color="#2F9400"/>
<stop offset="1" stop-color="white" stop-opacity="0"/>
</radialGradient>
<linearGradient id="paint2_linear" x1="40.3552" y1="6.70319" x2="16.2973" y2="48.3728" gradientUnits="userSpaceOnUse">
<stop stop-color="#56FF06"/>
<stop offset="1" stop-color="#319900"/>
</linearGradient>
<radialGradient id="paint3_radial" cx="0" cy="0" r="1" gradientUnits="userSpaceOnUse" gradientTransform="translate(31.9787 9.70723) rotate(-168.662) scale(5.50906 2.99523)">
<stop stop-color="white"/>
<stop offset="1" stop-color="white" stop-opacity="0"/>
</radialGradient>
<clipPath id="clip0">
<rect width="48" height="52" fill="white"/>
</clipPath>
</defs>
</svg>
