<svg width="69" height="16" viewBox="0 0 69 16" fill="none" xmlns="http://www.w3.org/2000/svg">
<path d="M59.3457 13.4832L59.3457 1.62988L0.000102997 1.62988L0.000102479 13.4832L59.3457 13.4832Z" fill="url(#paint0_linear)"/>
<path d="M44.2954 15.0973L32.5687 15.0973C32.4737 15.0973 32.3788 15.0973 32.2838 15.0815C32.2047 15.0657 32.1097 15.0657 32.0306 15.0498C31.999 15.0498 31.9515 15.034 31.9198 15.034C31.6666 15.0023 31.4293 14.939 31.2077 14.8757C30.9861 14.7966 30.7804 14.7175 30.6063 14.6067C30.3215 14.4485 30.0683 14.2744 29.8625 14.0528C29.5302 13.7047 29.3403 13.2932 29.3403 12.8343L29.3403 2.26284C29.3403 1.81972 29.5302 1.39244 29.8625 1.04428C30.0524 0.83855 30.3056 0.632818 30.6063 0.490389C30.7962 0.395436 30.9861 0.300468 31.2077 0.237166C31.4293 0.158038 31.6666 0.0947402 31.9198 0.0630892C32.1256 0.0314382 32.3471 0.0156243 32.5529 0.0156243C32.5845 0.0156243 32.6162 0.0156243 32.632 0.0156243L44.2795 0.0156249C46.1153 0.0156249 47.6029 1.01262 47.6029 2.26284L47.6029 12.8501C47.6187 14.1003 46.1311 15.0973 44.2954 15.0973Z" fill="url(#paint1_linear)"/>
<path d="M27.7739 14.6224L23.865 14.6224C23.8333 14.6224 23.7858 14.6224 23.7384 14.6066C23.7067 14.5907 23.6751 14.5907 23.6592 14.5749C23.137 14.385 22.7572 13.5462 22.7572 12.5018L22.7572 2.59501C22.7572 1.42393 23.2636 0.490234 23.865 0.490234L27.7739 0.490234C27.8688 0.490234 27.9638 0.506044 28.0587 0.553521C28.5493 0.790903 28.8975 1.61383 28.8975 2.59501L28.8975 12.5018C28.8975 13.4829 28.5493 14.3059 28.0587 14.5433C27.9638 14.5907 27.8688 14.6224 27.7739 14.6224Z" fill="url(#paint2_linear)"/>
<path d="M18.8163 15.0975L7.16873 15.0975C7.04212 15.0975 6.91552 15.0975 6.80474 15.0817C6.72561 15.0659 6.63067 15.0659 6.55154 15.0501C5.01647 14.8602 3.84537 13.9423 3.84537 12.8345L3.84537 2.24723C3.84537 0.997017 5.33297 -7.34643e-07 7.16873 -6.544e-07L18.8163 -1.45268e-07C20.6521 -6.50249e-08 22.1396 0.997018 22.1396 2.24723L22.1396 12.8345C22.1396 14.1005 20.6521 15.0975 18.8163 15.0975Z" fill="url(#paint3_linear)"/>
<path d="M48.2202 12.2014L48.2202 2.91178C48.2202 1.81982 48.8057 0.933593 49.5337 0.933593L54.1547 0.933594C54.8827 0.933594 55.4683 1.81982 55.4683 2.91178L55.4683 12.2014C55.4683 13.2933 54.8827 14.1795 54.1547 14.1795L49.5337 14.1795C48.8057 14.1795 48.2202 13.2933 48.2202 12.2014Z" fill="url(#paint4_linear)"/>
<path d="M56.0854 12.8972L56.0854 2.21496C56.0854 0.964749 57.8262 0.442523 59.6778 0.964764L67.0683 3.08537C67.8279 3.30692 68.3818 4.00326 68.3818 4.68376L68.3818 10.4284C68.3818 11.1089 67.8279 11.8052 67.0683 12.0268L59.6778 14.1474C57.8104 14.6855 56.0854 14.1632 56.0854 12.8972Z" fill="url(#paint5_linear)"/>
<path d="M57.0507 1.39254C57.0507 1.04438 57.9686 1.02855 59.0763 1.31341L67.3373 3.49734C67.7804 3.60812 68.0811 3.84548 68.0811 4.03539C68.0811 4.24112 67.7645 4.32026 67.3373 4.22531L59.0763 2.43702C57.9527 2.19964 57.0507 1.7407 57.0507 1.39254Z" fill="#A7A9AC"/>
<path d="M67.4796 4.17825L58.6806 2.21588C57.9685 2.05763 57.3513 1.7253 57.3513 1.47209L57.3513 1.45627C57.3513 1.21889 57.9685 1.17142 58.6806 1.36132L67.4796 3.64018C67.7487 3.70348 67.9702 3.87756 67.9702 4.01999C67.9702 4.16242 67.7645 4.24155 67.4796 4.17825Z" fill="#939598"/>
<path d="M67.3055 3.98811L59.1079 2.07323C58.4591 1.91497 57.9052 1.70924 57.9052 1.59846C57.9052 1.48768 58.4591 1.53515 59.1079 1.69341L67.3055 3.7349C67.5745 3.7982 67.7803 3.90898 67.7803 3.97228C67.7803 4.05141 67.5745 4.05141 67.3055 3.98811Z" fill="#58595B"/>
<path d="M57.0507 2.92761C57.0507 2.57945 57.9686 2.50033 59.0763 2.73771L67.3373 4.43103C67.7804 4.52598 68.0811 4.73172 68.0811 4.93746C68.0811 5.14319 67.7645 5.23814 67.3373 5.17484L59.0763 3.87714C57.9527 3.68723 57.0507 3.29159 57.0507 2.92761Z" fill="#A7A9AC"/>
<path d="M67.4796 5.0959L58.6806 3.67161C57.9685 3.56083 57.3513 3.26013 57.3513 3.00693L57.3513 2.9911C57.3513 2.75372 57.9685 2.6746 58.6806 2.81703L67.4796 4.55783C67.7487 4.60531 67.9702 4.76356 67.9702 4.90599C67.9702 5.04841 67.7645 5.12755 67.4796 5.0959Z" fill="#939598"/>
<path d="M67.3055 4.90573L59.1079 3.49727C58.4591 3.38649 57.9052 3.19657 57.9052 3.08579C57.9052 2.97502 58.4591 2.99085 59.1079 3.11746L67.3055 4.66834C67.5745 4.71582 67.7803 4.81078 67.7803 4.87408C67.7803 4.93739 67.5745 4.9532 67.3055 4.90573Z" fill="#58595B"/>
<path d="M57.0507 4.4786C57.0507 4.13044 57.9686 4.00383 59.0763 4.16209L67.3373 5.349C67.7804 5.4123 68.0811 5.60221 68.0811 5.80794C68.0811 6.01368 67.7645 6.12445 67.3373 6.07697L59.0763 5.2857C57.9527 5.17492 57.0507 4.82676 57.0507 4.4786Z" fill="#A7A9AC"/>
<path d="M67.4796 5.99737L58.6806 5.09533C57.9685 5.0162 57.3513 4.76298 57.3513 4.50977L57.3513 4.49395C57.3513 4.25657 57.9685 4.12997 58.6806 4.24075L67.4796 5.4593C67.7487 5.49095 67.9702 5.64923 67.9702 5.79165C67.9702 5.93408 67.7645 6.02903 67.4796 5.99737Z" fill="#939598"/>
<path d="M67.3055 5.83933L59.1079 4.92146C58.4591 4.84233 57.9052 4.69989 57.9052 4.58911C57.9052 4.47833 58.4591 4.46252 59.1079 4.54165L67.3055 5.60195C67.5745 5.6336 67.7803 5.71272 67.7803 5.77602C67.7803 5.83933 67.5745 5.87098 67.3055 5.83933Z" fill="#58595B"/>
<path d="M57.0507 6.01336C57.0507 5.6652 57.9686 5.47531 59.0763 5.57026L67.3373 6.26658C67.7804 6.29824 68.0811 6.47231 68.0811 6.67804C68.0811 6.88377 67.7645 7.01038 67.3373 6.99455L59.0763 6.69386C57.9527 6.66221 57.0507 6.36152 57.0507 6.01336Z" fill="#A7A9AC"/>
<path d="M67.4796 6.9154L58.6806 6.53558C57.9685 6.50393 57.3513 6.28238 57.3513 6.02918L57.3513 6.01333C57.3513 5.77595 57.9685 5.6177 58.6806 5.681L67.4796 6.36151C67.7487 6.37733 67.9702 6.51977 67.9702 6.6622C67.9702 6.82045 67.7645 6.93123 67.4796 6.9154Z" fill="#939598"/>
<path d="M67.3055 6.75687L59.1079 6.32957C58.4591 6.29792 57.9052 6.17132 57.9052 6.07637C57.9052 5.96559 58.4591 5.91812 59.1079 5.9656L67.3055 6.51949C67.5745 6.53532 67.7803 6.59862 67.7803 6.67775C67.7803 6.72522 67.5745 6.7727 67.3055 6.75687Z" fill="#58595B"/>
<path d="M57.0507 7.56453C57.0507 7.21637 57.9686 6.97899 59.0763 7.01064L67.3373 7.20054C67.7804 7.21636 68.0811 7.37462 68.0811 7.56453C68.0811 7.77026 67.7645 7.92852 67.3373 7.92852L59.0763 8.11842C57.9527 8.15007 57.0507 7.91269 57.0507 7.56453Z" fill="#A7A9AC"/>
<path d="M67.4796 7.83324L58.6806 7.9915C57.9685 8.00732 57.3513 7.81742 57.3513 7.56421L57.3513 7.54839C57.3513 7.31101 57.9685 7.12109 58.6806 7.12109L67.4796 7.27935C67.7487 7.27935 67.9702 7.40596 67.9702 7.54839C67.9702 7.70665 67.7645 7.83324 67.4796 7.83324Z" fill="#939598"/>
<path d="M67.3055 7.69151L59.1079 7.7548C58.4591 7.7548 57.9052 7.67568 57.9052 7.5649C57.9052 7.45412 58.4591 7.375 59.1079 7.375L67.3055 7.43829C67.5745 7.43829 67.7803 7.5016 67.7803 7.5649C67.7803 7.6282 67.5745 7.69151 67.3055 7.69151Z" fill="#58595B"/>
<path d="M57.0507 9.09956C57.0507 8.7514 57.9686 8.46655 59.0763 8.41908L67.3373 8.11839C67.7804 8.10256 68.0811 8.24499 68.0811 8.4349C68.0811 8.64063 67.7645 8.81471 67.3373 8.84636L59.0763 9.54268C57.9527 9.63764 57.0507 9.44772 57.0507 9.09956Z" fill="#A7A9AC"/>
<path d="M67.4796 8.75169L58.6806 9.43219C57.9685 9.49549 57.3513 9.33722 57.3513 9.09984L57.3513 9.08402C57.3513 8.84664 57.9685 8.60926 58.6806 8.57761L67.4796 8.1978C67.7487 8.18197 67.9702 8.29275 67.9702 8.43518C67.9702 8.59343 67.7645 8.72004 67.4796 8.75169Z" fill="#939598"/>
<path d="M67.3055 8.60861L59.1079 9.16251C58.4591 9.20998 57.9052 9.16251 57.9052 9.05173C57.9052 8.94096 58.4591 8.83018 59.1079 8.79853L67.3055 8.37123C67.5745 8.35541 67.7803 8.40288 67.7803 8.46618C67.7803 8.52948 67.5745 8.59279 67.3055 8.60861Z" fill="#58595B"/>
<path d="M57.0507 10.6504C57.0507 10.3022 57.9686 9.95406 59.0763 9.84328L67.3373 9.052C67.7804 9.00453 68.0811 9.13112 68.0811 9.32103C68.0811 9.52676 67.7645 9.71667 67.3373 9.77997L59.0763 10.9669C57.9527 11.1251 57.0507 10.9985 57.0507 10.6504Z" fill="#A7A9AC"/>
<path d="M67.4796 9.65353L58.6806 10.8721C57.9685 10.9671 57.3513 10.8563 57.3513 10.6189L57.3513 10.6031C57.3513 10.3657 57.9685 10.0966 58.6806 10.0175L67.4796 9.11547C67.7487 9.08382 67.9702 9.17876 67.9702 9.32119C67.9702 9.47945 67.7645 9.62187 67.4796 9.65353Z" fill="#939598"/>
<path d="M67.3055 9.54277L59.1079 10.6031C58.4591 10.6822 57.9052 10.6664 57.9052 10.5556C57.9052 10.4448 58.4591 10.3024 59.1079 10.2233L67.3055 9.30538C67.5745 9.27373 67.7803 9.30539 67.7803 9.36869C67.7803 9.41617 67.5745 9.49529 67.3055 9.54277Z" fill="#58595B"/>
<path d="M57.0507 12.1853C57.0507 11.8371 57.9686 11.4415 59.0763 11.2674L67.3373 9.96972C67.7804 9.90642 68.0811 10.0014 68.0811 10.1913C68.0811 10.397 67.7645 10.6028 67.3373 10.6977L59.0763 12.391C57.9527 12.6126 57.0507 12.5335 57.0507 12.1853Z" fill="#A7A9AC"/>
<path d="M67.4796 10.5714L58.6806 12.3122C57.9685 12.4546 57.3513 12.3755 57.3513 12.1381L57.3513 12.1223C57.3513 11.8849 57.9685 11.5842 58.6806 11.4576L67.4796 10.0333C67.7487 9.98586 67.9702 10.065 67.9702 10.2074C67.9702 10.3657 67.7645 10.5239 67.4796 10.5714Z" fill="#939598"/>
<path d="M67.3055 10.4603L59.1079 12.0112C58.4591 12.1378 57.9052 12.1536 57.9052 12.0429C57.9052 11.9321 58.4591 11.7422 59.1079 11.6314L67.3055 10.2229C67.5745 10.1754 67.7803 10.1913 67.7803 10.2546C67.7803 10.3179 67.5745 10.4128 67.3055 10.4603Z" fill="#58595B"/>
<path d="M57.0507 13.7203C57.0507 13.3721 57.9686 12.9132 59.0763 12.6758L67.3373 10.8875C67.7804 10.7926 68.0811 10.8717 68.0811 11.0774C68.0811 11.2832 67.7645 11.5047 67.3373 11.6313L59.0763 13.8152C57.9527 14.1001 57.0507 14.0843 57.0507 13.7203Z" fill="#A7A9AC"/>
<path d="M67.4796 11.4894L58.6806 13.7682C57.9685 13.9581 57.3513 13.9107 57.3513 13.6733L57.3513 13.6574C57.3513 13.4201 57.9685 13.0719 58.6806 12.9137L67.4796 10.9513C67.7487 10.888 67.9702 10.9513 67.9702 11.0937C67.9702 11.252 67.7645 11.4102 67.4796 11.4894Z" fill="#939598"/>
<path d="M67.3055 11.378L59.1079 13.4195C58.4591 13.5777 57.9052 13.6252 57.9052 13.5144C57.9052 13.4036 58.4591 13.1821 59.1079 13.0396L67.3055 11.1248C67.5745 11.0615 67.7803 11.0615 67.7803 11.1406C67.7803 11.2197 67.5745 11.3147 67.3055 11.378Z" fill="#58595B"/>
<defs>
<linearGradient id="paint0_linear" x1="29.6711" y1="1.63243" x2="29.6711" y2="13.492" gradientUnits="userSpaceOnUse">
<stop stop-color="#646464"/>
<stop offset="0.3008" stop-color="#0C0C0C"/>
<stop offset="0.6016" stop-color="#ADACAD"/>
<stop offset="1" stop-color="#838383"/>
</linearGradient>
<linearGradient id="paint1_linear" x1="38.4767" y1="0.017492" x2="38.4767" y2="15.1023" gradientUnits="userSpaceOnUse">
<stop stop-color="#9E9E9E"/>
<stop offset="0.3008" stop-color="#242424"/>
<stop offset="0.6016" stop-color="#E6E6E6"/>
<stop offset="1" stop-color="#BDBDBD"/>
</linearGradient>
<linearGradient id="paint2_linear" x1="25.8174" y1="0.500141" x2="25.8174" y2="14.6193" gradientUnits="userSpaceOnUse">
<stop stop-color="#9E9E9E"/>
<stop offset="0.3008" stop-color="#242424"/>
<stop offset="0.6016" stop-color="#E6E6E6"/>
<stop offset="1" stop-color="#BDBDBD"/>
</linearGradient>
<linearGradient id="paint3_linear" x1="12.9977" y1="0.0199239" x2="12.9977" y2="15.1048" gradientUnits="userSpaceOnUse">
<stop stop-color="#9E9E9E"/>
<stop offset="0.3008" stop-color="#242424"/>
<stop offset="0.6016" stop-color="#E6E6E6"/>
<stop offset="1" stop-color="#BDBDBD"/>
</linearGradient>
<linearGradient id="paint4_linear" x1="51.849" y1="0.942424" x2="51.849" y2="14.1821" gradientUnits="userSpaceOnUse">
<stop stop-color="#9E9E9E"/>
<stop offset="0.3008" stop-color="#242424"/>
<stop offset="0.6016" stop-color="#E6E6E6"/>
<stop offset="1" stop-color="#BDBDBD"/>
</linearGradient>
<linearGradient id="paint5_linear" x1="62.2251" y1="0.768953" x2="62.2251" y2="14.3545" gradientUnits="userSpaceOnUse">
<stop stop-color="#9E9E9E"/>
<stop offset="0.3008" stop-color="#242424"/>
<stop offset="0.6016" stop-color="#E6E6E6"/>
<stop offset="1" stop-color="#BDBDBD"/>
</linearGradient>
</defs>
</svg>
