<svg width="14" height="8" viewBox="0 0 14 8" fill="none" xmlns="http://www.w3.org/2000/svg">
<path fill-rule="evenodd" clip-rule="evenodd" d="M1.00003 0C0.802281 4.22243e-05 0.608983 0.0587139 0.444573 0.168598C0.280163 0.278482 0.152023 0.434646 0.0763533 0.617346C0.000683263 0.800046 -0.01912 1.00108 0.0194476 1.19503C0.0580151 1.38898 0.153222 1.56715 0.293031 1.707L6.29303 7.707C6.48056 7.89447 6.73487 7.99979 7.00003 7.99979C7.2652 7.99979 7.5195 7.89447 7.70703 7.707L13.707 1.707C13.8468 1.56715 13.942 1.38898 13.9806 1.19503C14.0192 1.00108 13.9994 0.800046 13.9237 0.617346C13.848 0.434646 13.7199 0.278482 13.5555 0.168598C13.3911 0.0587139 13.1978 4.22243e-05 13 0H1.00003Z" fill="white"/>
</svg>
