<svg width="18" height="16" viewBox="0 0 18 16" fill="none" xmlns="http://www.w3.org/2000/svg">
<path d="M12.0002 12.041V11.216C13.1022 10.595 14.0002 9.048 14.0002 7.5C14.0002 5.015 14.0002 3 11.0002 3C8.00024 3 8.00024 5.015 8.00024 7.5C8.00024 9.048 8.89824 10.595 10.0002 11.216V12.041C6.60824 12.318 4.00024 13.985 4.00024 16H18.0002C18.0002 13.985 15.3922 12.318 12.0002 12.041Z" fill="#FFE81F"/>
<path d="M5.11224 12.427C5.97624 11.862 7.05124 11.433 8.23424 11.171C7.99336 10.8853 7.78133 10.5764 7.60124 10.249C7.13213 9.40855 6.88244 8.46344 6.87524 7.50098C6.87524 6.15698 6.87524 4.88698 7.35324 3.84798C7.81724 2.83998 8.65224 2.21498 9.84124 1.98098C9.57724 0.785976 8.87324 0.000976562 7.00024 0.000976562C4.00024 0.000976562 4.00024 2.01598 4.00024 4.50098C4.00024 6.04898 4.89824 7.59598 6.00024 8.21698V9.04198C2.60824 9.31898 0.000244141 10.986 0.000244141 13.001H4.35924C4.58624 12.799 4.83724 12.608 5.11224 12.428V12.427Z" fill="#FFE81F"/>
</svg>
